<?xml version="1.0" encoding="UTF-8" standalone="no"?>
<!DOCTYPE svg PUBLIC "-//W3C//DTD SVG 20010904//EN"
              "http://www.w3.org/TR/2001/REC-SVG-20010904/DTD/svg10.dtd">

<svg xmlns="http://www.w3.org/2000/svg"
     width="66.1551mm" height="66.1551mm"
     viewBox="0 0 250 250">
  <path id="Double_V"
        fill="#a349a4" stroke="black" stroke-width="1"
        d="M 20.00,19.00
           C 20.00,19.00 45.00,19.00 45.00,19.00
             45.00,19.00 52.29,46.00 52.29,46.00
             52.29,46.00 65.29,91.00 65.29,91.00
             65.29,91.00 81.00,143.00 81.00,143.00
             81.00,143.00 96.98,91.00 96.98,91.00
             96.98,91.00 110.00,51.00 110.00,51.00
             110.00,51.00 110.00,107.00 110.00,107.00
             109.99,116.47 106.64,125.09 103.67,134.00
             103.67,134.00 93.67,165.00 93.67,165.00
             93.67,165.00 85.00,192.00 85.00,192.00
             83.76,195.53 81.85,199.46 77.27,197.40
             74.27,196.05 73.02,189.09 72.00,186.00
             72.00,186.00 62.00,154.00 62.00,154.00
             62.00,154.00 20.00,19.00 20.00,19.00 Z
           M 166.00,142.00
           C 166.00,142.00 176.71,108.00 176.71,108.00
             176.71,108.00 194.29,48.00 194.29,48.00
             194.29,48.00 200.14,28.00 200.14,28.00
             200.14,28.00 203.56,20.02 203.56,20.02
             203.56,20.02 211.00,19.00 211.00,19.00
             211.00,19.00 227.00,19.00 227.00,19.00
             227.00,19.00 214.02,62.00 214.02,62.00
             214.02,62.00 186.14,153.00 186.14,153.00
             186.14,153.00 176.00,186.00 176.00,186.00
             174.99,189.09 173.72,196.05 170.73,197.40
             166.14,199.46 164.25,195.52 163.00,192.00
             163.00,192.00 154.00,166.00 154.00,166.00
             154.00,166.00 139.95,124.00 139.95,124.00
             139.95,124.00 139.95,89.00 139.95,89.00
             140.00,82.86 139.10,65.78 141.00,61.00
             141.00,61.00 166.00,142.00 166.00,142.00 Z
           M 139.00,57.00
           C 139.00,57.00 140.00,57.00 140.00,57.00
             140.00,57.00 139.00,58.00 139.00,58.00
             139.00,58.00 139.00,57.00 139.00,57.00 Z" />
	<path id="L"
        fill="#000000" stroke="black" stroke-width="1"
        d="M 110.00,17.00
           C 110.00,17.00 139.00,17.00 139.00,17.00
             139.00,17.00 139.00,205.00 139.00,205.00
             139.00,205.00 200.00,205.00 200.00,205.00
             200.00,205.00 200.00,231.00 200.00,231.00
             200.00,231.00 110.00,231.00 110.00,231.00
             110.00,231.00 110.00,17.00 110.00,17.00 Z" />
</svg>
