<?xml version="1.0" encoding="UTF-8" standalone="no"?>
<!-- Created with Inkscape (http://www.inkscape.org/) -->

<svg
   xmlns:dc="http://purl.org/dc/elements/1.1/"
   xmlns:cc="http://creativecommons.org/ns#"
   xmlns:rdf="http://www.w3.org/1999/02/22-rdf-syntax-ns#"
   xmlns:svg="http://www.w3.org/2000/svg"
   xmlns="http://www.w3.org/2000/svg"
   xmlns:sodipodi="http://sodipodi.sourceforge.net/DTD/sodipodi-0.dtd"
   xmlns:inkscape="http://www.inkscape.org/namespaces/inkscape"
   version="1.1"
   id="svg815"
   xml:space="preserve"
   width="558.39398"
   height="333.30362"
   viewBox="0 0 558.39398 333.30362"
   sodipodi:docname="wrenches.svg"
   inkscape:version="0.92.3 (2405546, 2018-03-11)"><title
     id="title59">Wrench</title><metadata
     id="metadata821"><rdf:RDF><cc:Work
         rdf:about=""><dc:format>image/svg+xml</dc:format><dc:type
           rdf:resource="http://purl.org/dc/dcmitype/StillImage" /><dc:title>Wrench</dc:title><cc:license
           rdf:resource="http://creativecommons.org/publicdomain/zero/1.0/" /></cc:Work><cc:License
         rdf:about="http://creativecommons.org/publicdomain/zero/1.0/"><cc:permits
           rdf:resource="http://creativecommons.org/ns#Reproduction" /><cc:permits
           rdf:resource="http://creativecommons.org/ns#Distribution" /><cc:permits
           rdf:resource="http://creativecommons.org/ns#DerivativeWorks" /></cc:License></rdf:RDF></metadata><defs
     id="defs819"><clipPath
       clipPathUnits="userSpaceOnUse"
       id="clipPath831"><path
         d="M 0,660 H 660 V 0 H 0 Z"
         id="path829"
         inkscape:connector-curvature="0" /></clipPath></defs><sodipodi:namedview
     pagecolor="#ffffff"
     bordercolor="#666666"
     borderopacity="1"
     objecttolerance="10"
     gridtolerance="10"
     guidetolerance="10"
     inkscape:pageopacity="0"
     inkscape:pageshadow="2"
     inkscape:window-width="1920"
     inkscape:window-height="1017"
     id="namedview817"
     showgrid="false"
     inkscape:zoom="0.71783573"
     inkscape:cx="1225.4453"
     inkscape:cy="-157.96891"
     inkscape:window-x="3832"
     inkscape:window-y="-8"
     inkscape:window-maximized="1"
     inkscape:current-layer="g823"
     fit-margin-top="0"
     fit-margin-left="0"
     fit-margin-right="0"
     fit-margin-bottom="0" /><g
     id="g823"
     inkscape:groupmode="layer"
     inkscape:label="wrench-gear-silhouette-freesvg.org"
     transform="matrix(1.3333333,0,0,-1.3333333,-171.20409,367.18185)"><path
       style="fill:#2d2b2d;fill-opacity:1;fill-rule:evenodd;stroke:none;stroke-width:1.33333325"
       d="M 71.828125,0.0078125 C 64.296263,-0.17523437 56.988568,2.8439845 51.990234,9.2089844 L 87.246094,36.886719 C 111.50609,55.932052 64.640765,115.62674 40.384766,96.580078 L 5.1289062,68.902344 c -7.9973331,10.185333 -6.2667758,24.081297 2.5878907,33.529296 l 19.9062501,21.24219 c 18.415999,19.652 41.276443,21.96614 60.287109,16.49414 13.698664,-3.94667 26.611584,-3.3688 39.906254,1.7832 l 43.72265,16.94531 192.42383,74.57422 33.06055,12.8125 c 5.092,1.97334 9.43519,4.93321 12.86718,8.67188 4.716,-22.22933 20.65695,-42.59773 41.09961,-52.53906 -22.40133,15.30266 -37.05529,43.40516 -32.77929,70.0625 h -0.002 c 2.52,15.73333 10.89316,32.18909 29.64649,42.75976 l 25.35742,14.29883 c 11.28133,6.36 25.19079,4.73869 33.18945,-5.44531 l -35.2539,-27.67578 c -24.26134,-19.04534 22.60133,-78.73603 46.86133,-59.69336 l 35.2539,27.67968 c 7.99867,-10.18666 6.27006,-24.08325 -2.58594,-33.53125 l -19.91015,-21.24414 c -18.41467,-19.648 -41.27654,-21.96223 -60.2832,-16.49023 -13.70267,3.94267 -26.61559,3.36684 -39.90626,-1.78516 l -43.7246,-16.94531 -27.00977,-10.4707 -13.57227,-5.25977 -151.84179,-58.839842 -33.0625,-12.814454 c -5.09067,-1.976 -9.4319,-4.933208 -12.86524,-8.671875 -4.716,22.226671 -20.65632,42.597731 -41.09765,52.539061 22.40133,-15.30666 37.05272,-43.404452 32.77539,-70.064451 h 0.006 C 137.66155,45.090886 129.29044,28.637166 110.53711,18.0625 L 85.177734,3.765625 C 80.948234,1.3806251 76.347242,0.11764062 71.828125,0.0078125 Z M 185.89844,116.29102 c 1.86648,-0.0597 3.7719,0.24498 5.61523,0.95898 62.6384,28.99034 120.51737,46.71293 173.53516,67.25195 7.37333,2.85867 11.06632,11.22957 8.20898,18.60157 -2.85866,7.376 -11.22761,11.07022 -18.59961,8.21289 L 181.12305,144.0625 c -7.37334,-2.85733 -11.06899,-11.22618 -8.20899,-18.60352 2.141,-5.53 7.38494,-8.98884 12.98438,-9.16796 z"
       transform="matrix(0.75000002,0,0,-0.75000002,128.40307,275.38639)"
       id="path925"
       inkscape:connector-curvature="0"
       sodipodi:nodetypes="sccccccccccccccccccccccccccccccccccccscccccccc" /></g>
         <g
      id="layer1"
      inkscape:label="Layer 1"
      inkscape:groupmode="layer"
      transform="translate(100 -366.41)"
    >
    <path
        id="path2100"
        style="fill-rule:evenodd;stroke:black;stroke-width:.93739;fill:#000000"
        d="m306.11 366.87c-31.02 0.03-55.83 25.72-62.42 58.75h-17.26l-4.74 10.89h20.53c-0.16 2.19-0.25 4.4-0.25 6.63 0 2.44 0.12 4.85 0.33 7.24h-15.87l-4.26 11.22h21.87c7.44 32.69 34.19 56.82 65.72 56.82 15.4 0 31.44-6.66 44.96-17.41l-0.16-16.51c-10.42 14.66-26.56 22.38-44.8 22.38-26.02 0-47.77-18.61-54.72-45.28h77.43l3.97-11.22h-83.38c-0.23-2.37-0.35-4.79-0.35-7.24 0-2.24 0.1-4.46 0.28-6.63h88.49l4.26-10.89h-91.1c6.22-27.31 26.88-46.71 53.21-46.71 18.22 0 35.45 7.87 46.4 22.63l4.35-12.18c-14.51-12.41-32.61-21.91-50.75-22.46-0.58-0.01-1.16-0.03-1.74-0.03z"
    />
  </g
  ></svg>